<svg width="34" height="28" viewBox="0 0 34 28" fill="none" xmlns="http://www.w3.org/2000/svg">
<path d="M33.5494 16.7747C33.5494 7.51028 26.0391 0 16.7747 0C7.51028 0 0 7.51028 0 16.7747C0 20.7752 1.40326 24.4475 3.74148 27.3313H29.8095C32.1461 24.4475 33.5494 20.7752 33.5494 16.7747ZM16.8246 20.8525C16.8374 20.838 16.8503 20.8235 16.8616 20.809C17.6292 19.9046 18.1602 18.8329 18.4177 17.6935C19.0067 18.8039 20.2008 19.5329 21.5815 19.5329C22.8351 19.5329 23.9374 18.9295 24.5698 17.9865V22.0691C23.6686 22.4987 22.6532 22.7385 21.5815 22.7385C19.7293 22.7385 18.0492 22.024 16.8246 20.8525ZM28.3628 24.2415C26.5798 24.2415 25.133 22.7948 25.133 21.0118V19.1129V16.1133C25.133 14.1661 23.5416 12.4844 21.5799 12.4844C19.6183 12.4844 18.0267 14.1661 18.0267 16.1133C18.0267 17.7612 17.4249 19.2738 16.4303 20.4437C15.1848 21.9097 13.3197 22.8431 11.2406 22.8431C7.50068 22.8431 4.45755 19.8242 4.45755 16.1116C4.45755 15.9218 4.46565 15.7335 4.48175 15.5468C4.77141 12.0982 7.69218 9.38183 11.2406 9.38183C12.5424 9.38183 13.7606 9.74712 14.7937 10.3812V8.4533C14.7937 6.66865 16.2404 5.22358 18.0235 5.22358L18.0251 9.65221C17.9237 9.70854 17.8239 9.76806 17.7241 9.83082C17.0788 10.238 16.4995 10.74 16.0038 11.3258C15.9894 11.3435 15.9733 11.3596 15.9588 11.3773C15.4728 11.9598 15.0818 12.6099 14.7953 13.2987C14.6312 13.693 14.5025 14.1001 14.4091 14.5153C13.8202 13.3711 12.6229 12.5874 11.2406 12.5874C9.472 12.5874 8.00597 13.87 7.73401 15.5484C7.70344 15.7319 7.68734 15.9218 7.68734 16.1133C7.68734 18.0605 9.27728 19.6391 11.2406 19.6391C13.2022 19.6391 14.7969 18.0605 14.7969 16.1133C14.7969 14.4654 15.3971 12.9318 16.3933 11.7378C16.8583 11.1794 17.4087 10.695 18.0251 10.3071C19.0598 9.65701 20.278 9.27725 21.5799 9.27725C25.3198 9.27725 28.3628 12.4007 28.3628 16.1116V24.2415Z" fill="#FFDD00"/>
</svg>
