<svg width="16" height="21" viewBox="0 0 16 21" fill="none" xmlns="http://www.w3.org/2000/svg">
<g clip-path="url(#clip0)">
<path d="M7.25591 19.7615C1.65489 11.6417 0.615234 10.8083 0.615234 7.82417C0.615234 3.73652 3.9289 0.422852 8.01655 0.422852C12.1042 0.422852 15.4179 3.73652 15.4179 7.82417C15.4179 10.8083 14.3782 11.6417 8.77719 19.7615C8.40963 20.2925 7.62343 20.2924 7.25591 19.7615ZM8.01655 10.9081C9.71974 10.9081 11.1004 9.52736 11.1004 7.82417C11.1004 6.12098 9.71974 4.74029 8.01655 4.74029C6.31336 4.74029 4.93267 6.12098 4.93267 7.82417C4.93267 9.52736 6.31336 10.9081 8.01655 10.9081Z" fill="#FFD30B"/>
</g>
<defs>
<clipPath id="clip0">
<rect width="14.8026" height="19.7368" fill="white" transform="translate(0.615234 0.422852)"/>
</clipPath>
</defs>
</svg>
