<svg width="41" height="41" viewBox="0 0 41 41" fill="none" xmlns="http://www.w3.org/2000/svg">
<circle cx="20.0978" cy="20.0196" r="19.4299" stroke="#3E6084" stroke-width="1.17945"/>
<path d="M20.0984 17.2387C18.5678 17.2387 17.3186 18.4878 17.3186 20.0185C17.3186 21.5492 18.5678 22.7983 20.0984 22.7983C21.6291 22.7983 22.8783 21.5492 22.8783 20.0185C22.8783 18.4878 21.6291 17.2387 20.0984 17.2387ZM28.4358 20.0185C28.4358 18.8674 28.4462 17.7267 28.3816 16.5776C28.3169 15.243 28.0125 14.0585 27.0365 13.0825C26.0585 12.1045 24.876 11.8021 23.5414 11.7375C22.3903 11.6728 21.2496 11.6832 20.1005 11.6832C18.9494 11.6832 17.8087 11.6728 16.6597 11.7375C15.325 11.8021 14.1405 12.1066 13.1646 13.0825C12.1865 14.0606 11.8841 15.243 11.8195 16.5776C11.7548 17.7287 11.7653 18.8695 11.7653 20.0185C11.7653 21.1675 11.7548 22.3103 11.8195 23.4594C11.8841 24.794 12.1886 25.9785 13.1646 26.9545C14.1426 27.9325 15.325 28.2349 16.6597 28.2995C17.8108 28.3642 18.9515 28.3538 20.1005 28.3538C21.2517 28.3538 22.3924 28.3642 23.5414 28.2995C24.876 28.2349 26.0605 27.9304 27.0365 26.9545C28.0145 25.9764 28.3169 24.794 28.3816 23.4594C28.4483 22.3103 28.4358 21.1696 28.4358 20.0185ZM20.0984 24.2956C17.7315 24.2956 15.8213 22.3854 15.8213 20.0185C15.8213 17.6516 17.7315 15.7414 20.0984 15.7414C22.4653 15.7414 24.3756 17.6516 24.3756 20.0185C24.3756 22.3854 22.4653 24.2956 20.0984 24.2956ZM24.5507 16.5651C23.9981 16.5651 23.5518 16.1188 23.5518 15.5662C23.5518 15.0136 23.9981 14.5673 24.5507 14.5673C25.1033 14.5673 25.5496 15.0136 25.5496 15.5662C25.5498 15.6974 25.5241 15.8274 25.4739 15.9487C25.4238 16.0699 25.3502 16.1801 25.2574 16.2729C25.1646 16.3657 25.0544 16.4393 24.9332 16.4894C24.8119 16.5395 24.6819 16.5653 24.5507 16.5651Z" fill="#70859E"/>
</svg>
