<svg width="41" height="41" viewBox="0 0 41 41" fill="none" xmlns="http://www.w3.org/2000/svg">
<circle cx="20.0587" cy="20.0206" r="19.4382" stroke="#3E6084" stroke-width="1.16284"/>
<path d="M26.6555 11.8428H14.0233C13.1549 11.8428 12.4443 12.5533 12.4443 13.4218V26.0539C12.4443 26.9224 13.1549 27.6329 14.0233 27.6329H26.6555C27.5239 27.6329 28.2345 26.9224 28.2345 26.0539V13.4218C28.2345 12.5533 27.5239 11.8428 26.6555 11.8428ZM17.1814 25.2644H14.8129V18.1588H17.1814V25.2644ZM15.9971 16.8167C15.2076 16.8167 14.576 16.1851 14.576 15.3956C14.576 14.606 15.2076 13.9744 15.9971 13.9744C16.7866 13.9744 17.4182 14.606 17.4182 15.3956C17.4182 16.1851 16.7866 16.8167 15.9971 16.8167ZM25.866 25.2644H23.4974V21.08C23.4974 20.4484 22.9448 19.8957 22.3132 19.8957C21.6816 19.8957 21.1289 20.4484 21.1289 21.08V25.2644H18.7604V18.1588H21.1289V19.1062C21.5237 18.4746 22.3921 18.0009 23.1027 18.0009C24.6027 18.0009 25.866 19.2641 25.866 20.7642V25.2644Z" fill="#70859E"/>
</svg>
